ffmpeg version 3.4.8-0ubuntu0.2 Copyright (c) 2000-2020 the FFmpeg developers
  built with gcc 7 (Ubuntu 7.5.0-3ubuntu1~18.04)
  configuration: --prefix=/usr --extra-version=0ubuntu0.2 --toolchain=hardened --libdir=/usr/lib/x86_64-linux-gnu --incdir=/usr/include/x86_64-linux-gnu --enable-gpl --disable-stripping --enable-avresample --enable-avisynth --enable-gnutls --enable-ladspa --enable-libass --enable-libbluray --enable-libbs2b --enable-libcaca --enable-libcdio --enable-libflite --enable-libfontconfig --enable-libfreetype --enable-libfribidi --enable-libgme --enable-libgsm --enable-libmp3lame --enable-libmysofa --enable-libopenjpeg --enable-libopenmpt --enable-libopus --enable-libpulse --enable-librubberband --enable-librsvg --enable-libshine --enable-libsnappy --enable-libsoxr --enable-libspeex --enable-libssh --enable-libtheora --enable-libtwolame --enable-libvorbis --enable-libvpx --enable-libwavpack --enable-libwebp --enable-libx265 --enable-libxml2 --enable-libxvid --enable-libzmq --enable-libzvbi --enable-omx --enable-openal --enable-opengl --enable-sdl2 --enable-libdc1394 --enable-libdrm --enable-libiec61883 --enable-chromaprint --enable-frei0r --enable-libopencv --enable-libx264 --enable-shared
  libavutil      55. 78.100 / 55. 78.100
  libavcodec     57.107.100 / 57.107.100
  libavformat    57. 83.100 / 57. 83.100
  libavdevice    57. 10.100 / 57. 10.100
  libavfilter     6.107.100 /  6.107.100
  libavresample   3.  7.  0 /  3.  7.  0
  libswscale      4.  8.100 /  4.  8.100
  libswresample   2.  9.100 /  2.  9.100
  libpostproc    54.  7.100 / 54.  7.100
Input #0, yuv4mpegpipe, from '../.././Samples/Netflix_Boat_4096x2160_60fps_10bit_420.y4m':
  Duration: 00:00:05.00, start: 0.000000, bitrate: 12740201 kb/s
    Stream #0:0: Video: rawvideo (Y3[11][10] / 0xA0B3359), yuv420p10le(progressive), 4096x2160, SAR 1:1 DAR 256:135, 60 fps, 60 tbr, 60 tbn, 60 tbc
Stream mapping:
  Stream #0:0 -> #0:0 (rawvideo (native) -> h264 (libx264))
Press [q] to stop, [?] for help
[libx264 @ 0x55e147dc5240] using SAR=1/1
[libx264 @ 0x55e147dc5240] using cpu capabilities: MMX2 SSE2Fast SSSE3 SSE4.2 AVX FMA3 BMI2 AVX2
[libx264 @ 0x55e147dc5240] profile High, level 5.2
[libx264 @ 0x55e147dc5240] 264 - core 152 r2854 e9a5903 - H.264/MPEG-4 AVC codec - Copyleft 2003-2017 - http://www.videolan.org/x264.html - options: cabac=1 ref=3 deblock=1:0:0 analyse=0x3:0x113 me=hex subme=7 psy=1 psy_rd=1.00:0.00 mixed_ref=1 me_range=16 chroma_me=1 trellis=1 8x8dct=1 cqm=0 deadzone=21,11 fast_pskip=1 chroma_qp_offset=-2 threads=6 lookahead_threads=1 sliced_threads=0 nr=0 decimate=1 interlaced=0 bluray_compat=0 constrained_intra=0 bframes=3 b_pyramid=2 b_adapt=1 b_bias=0 direct=1 weightb=1 open_gop=0 weightp=2 keyint=250 keyint_min=25 scenecut=40 intra_refresh=0 rc_lookahead=40 rc=crf mbtree=1 crf=23.0 qcomp=0.60 qpmin=0 qpmax=69 qpstep=4 ip_ratio=1.40 aq=1:1.00
Output #0, mov, to '/home/aleksandr/Pract/Samples/Netflix_Boat_4096x2160_60fps_10bit_420.y4m_tc/output1.mov':
  Metadata:
    encoder         : Lavf57.83.100
    Stream #0:0: Video: h264 (libx264) (avc1 / 0x31637661), yuv420p, 4096x2160 [SAR 1:1 DAR 256:135], q=-1--1, 60 fps, 15360 tbn, 60 tbc
    Metadata:
      encoder         : Lavc57.107.100 libx264
    Side data:
      cpb: bitrate max/min/avg: 0/0/0 buffer size: 0 vbv_delay: -1
frame=    4 fps=0.0 q=0.0 size=       0kB time=00:00:00.00 bitrate=N/A speed=   0x    frame=    7 fps=5.5 q=0.0 size=       0kB time=00:00:00.00 bitrate=N/A speed=   0x    frame=   10 fps=5.0 q=0.0 size=       0kB time=00:00:00.00 bitrate=N/A speed=   0x    frame=   13 fps=4.8 q=0.0 size=       0kB time=00:00:00.00 bitrate=N/A speed=   0x    frame=   15 fps=4.6 q=0.0 size=       0kB time=00:00:00.00 bitrate=N/A speed=   0x    frame=   18 fps=4.5 q=0.0 size=       0kB time=00:00:00.00 bitrate=N/A speed=   0x    frame=   20 fps=4.4 q=0.0 size=       0kB time=00:00:00.00 bitrate=N/A speed=   0x    frame=   23 fps=4.4 q=0.0 size=       0kB time=00:00:00.00 bitrate=N/A speed=   0x    frame=   26 fps=4.3 q=0.0 size=       0kB time=00:00:00.00 bitrate=N/A speed=   0x    frame=   29 fps=4.3 q=0.0 size=       0kB time=00:00:00.00 bitrate=N/A speed=   0x    frame=   32 fps=4.3 q=0.0 size=       0kB time=00:00:00.00 bitrate=N/A speed=   0x    frame=   35 fps=4.3 q=0.0 size=       0kB time=00:00:00.00 bitrate=N/A speed=   0x    frame=   38 fps=4.3 q=0.0 size=       0kB time=00:00:00.00 bitrate=N/A speed=   0x    frame=   41 fps=4.3 q=0.0 size=       0kB time=00:00:00.00 bitrate=N/A speed=   0x    frame=   44 fps=4.3 q=0.0 size=       0kB time=00:00:00.00 bitrate=N/A speed=   0x    frame=   47 fps=3.8 q=0.0 size=       0kB time=00:00:00.00 bitrate=N/A speed=   0x    frame=   49 fps=3.8 q=0.0 size=       0kB time=00:00:00.00 bitrate=N/A speed=   0x    frame=   52 fps=3.8 q=31.0 size=     768kB time=-00:00:00.01 bitrate=N/A speed=N/A    frame=   55 fps=3.9 q=31.0 size=     768kB time=00:00:00.03 bitrate=188386.8kbits/s speed=0.00234x    frame=   58 fps=3.9 q=31.0 size=    1024kB time=00:00:00.08 bitrate=100588.7kbits/s speed=0.00562x    frame=   61 fps=4.0 q=31.0 size=    1280kB time=00:00:00.13 bitrate=78607.2kbits/s speed=0.00865x    frame=   64 fps=4.0 q=31.0 size=    1536kB time=00:00:00.18 bitrate=68611.4kbits/s speed=0.0114x    frame=   67 fps=4.0 q=31.0 size=    1536kB time=00:00:00.23 bitrate=53913.1kbits/s speed=0.014x    frame=   70 fps=4.1 q=31.0 size=    1792kB time=00:00:00.28 bitrate=51801.2kbits/s speed=0.0165x    frame=   73 fps=4.1 q=31.0 size=    2048kB time=00:00:00.33 bitrate=50322.7kbits/s speed=0.0187x    frame=   76 fps=4.1 q=31.0 size=    2304kB time=00:00:00.38 bitrate=49229.9kbits/s speed=0.0208x    frame=   79 fps=4.2 q=31.0 size=    2304kB time=00:00:00.43 bitrate=43550.4kbits/s speed=0.0228x    frame=   81 fps=4.1 q=31.0 size=    2560kB time=00:00:00.46 bitrate=44933.3kbits/s speed=0.0239x    frame=   84 fps=4.2 q=31.0 size=    2816kB time=00:00:00.51 bitrate=44644.0kbits/s speed=0.0257x    frame=   87 fps=4.2 q=31.0 size=    2816kB time=00:00:00.56 bitrate=40705.2kbits/s speed=0.0273x    frame=   90 fps=4.2 q=31.0 size=    3072kB time=00:00:00.61 bitrate=40805.6kbits/s speed=0.0289x    frame=   93 fps=4.2 q=31.0 size=    3328kB time=00:00:00.66 bitrate=40890.9kbits/s speed=0.0304x    frame=   96 fps=4.3 q=31.0 size=    3584kB time=00:00:00.71 bitrate=40964.3kbits/s speed=0.0318x    frame=   99 fps=4.3 q=31.0 size=    3584kB time=00:00:00.76 bitrate=38292.9kbits/s speed=0.0332x    frame=  102 fps=4.3 q=31.0 size=    3840kB time=00:00:00.81 bitrate=38516.4kbits/s speed=0.0344x    frame=  105 fps=4.3 q=31.0 size=    4096kB time=00:00:00.86 bitrate=38714.1kbits/s speed=0.0356x    frame=  107 fps=4.3 q=31.0 size=    4096kB time=00:00:00.90 bitrate=37280.3kbits/s speed=0.0362x    frame=  110 fps=4.3 q=31.0 size=    4352kB time=00:00:00.95 bitrate=37525.7kbits/s speed=0.0373x    frame=  113 fps=4.3 q=31.0 size=    4608kB time=00:00:01.00 bitrate=37746.6kbits/s speed=0.0384x    frame=  116 fps=4.4 q=31.0 size=    4864kB time=00:00:01.05 bitrate=37946.4kbits/s speed=0.0394x    frame=  119 fps=4.4 q=31.0 size=    4864kB time=00:00:01.10 bitrate=36221.7kbits/s speed=0.0404x    frame=  122 fps=4.4 q=31.0 size=    5120kB time=00:00:01.15 bitrate=36470.4kbits/s speed=0.0413x    frame=  125 fps=4.4 q=31.0 size=    5376kB time=00:00:01.20 bitrate=36698.4kbits/s speed=0.0422x    frame=  128 fps=4.4 q=31.0 size=    5632kB time=00:00:01.25 bitrate=36908.2kbits/s speed=0.043x    frame=  131 fps=4.4 q=31.0 size=    5632kB time=00:00:01.30 bitrate=35488.7kbits/s speed=0.0439x    frame=  134 fps=4.4 q=31.0 size=    5888kB time=00:00:01.35 bitrate=35727.7kbits/s speed=0.0446x    frame=  137 fps=4.4 q=31.0 size=    6144kB time=00:00:01.40 bitrate=35949.7kbits/s speed=0.0453x    frame=  140 fps=4.4 q=31.0 size=    6400kB time=00:00:01.45 bitrate=36156.4kbits/s speed=0.0461x    frame=  143 fps=4.5 q=31.0 size=    6400kB time=00:00:01.50 bitrate=34951.2kbits/s speed=0.0468x    frame=  146 fps=4.5 q=31.0 size=    6656kB time=00:00:01.55 bitrate=35176.7kbits/s speed=0.0474x    frame=  149 fps=4.5 q=31.0 size=    6912kB time=00:00:01.60 bitrate=35388.2kbits/s speed=0.0481x    frame=  152 fps=4.5 q=31.0 size=    7168kB time=00:00:01.65 bitrate=35586.8kbits/s speed=0.0488x    frame=  155 fps=4.5 q=31.0 size=    7168kB time=00:00:01.70 bitrate=34540.2kbits/s speed=0.0493x    frame=  158 fps=4.5 q=31.0 size=    7424kB time=00:00:01.75 bitrate=34751.7kbits/s speed=0.05x    frame=  161 fps=4.5 q=31.0 size=    7680kB time=00:00:01.80 bitrate=34951.4kbits/s speed=0.0504x    frame=  164 fps=4.5 q=31.0 size=    7936kB time=00:00:01.85 bitrate=35140.4kbits/s speed=0.051x    frame=  167 fps=4.5 q=31.0 size=    8192kB time=00:00:01.90 bitrate=35319.4kbits/s speed=0.0515x    frame=  170 fps=4.5 q=31.0 size=    8448kB time=00:00:01.95 bitrate=35489.2kbits/s speed=0.0519x    frame=  173 fps=4.5 q=31.0 size=    8704kB time=00:00:02.00 bitrate=35650.6kbits/s speed=0.0524x    frame=  175 fps=4.5 q=31.0 size=    8704kB time=00:00:02.03 bitrate=35066.2kbits/s speed=0.0526x    frame=  178 fps=4.5 q=31.0 size=    8960kB time=00:00:02.08 bitrate=35231.2kbits/s speed=0.053x    frame=  181 fps=4.5 q=31.0 size=    9216kB time=00:00:02.13 bitrate=35388.5kbits/s speed=0.0534x    frame=  184 fps=4.5 q=31.0 size=    9472kB time=00:00:02.18 bitrate=35538.6kbits/s speed=0.0539x    frame=  186 fps=4.5 q=31.0 size=    9472kB time=00:00:02.21 bitrate=35004.2kbits/s speed=0.054x    frame=  189 fps=4.5 q=31.0 size=    9728kB time=00:00:02.26 bitrate=35157.3kbits/s speed=0.0544x    frame=  192 fps=4.5 q=31.0 size=    9984kB time=00:00:02.31 bitrate=35303.7kbits/s speed=0.0548x    frame=  195 fps=4.5 q=31.0 size=    9984kB time=00:00:02.36 bitrate=34557.9kbits/s speed=0.0552x    frame=  198 fps=4.5 q=31.0 size=   10240kB time=00:00:02.41 bitrate=34710.7kbits/s speed=0.0555x    frame=  201 fps=4.5 q=31.0 size=   10496kB time=00:00:02.46 bitrate=34857.3kbits/s speed=0.0558x    frame=  204 fps=4.6 q=31.0 size=   10752kB time=00:00:02.51 bitrate=34998.0kbits/s speed=0.0562x    frame=  207 fps=4.6 q=31.0 size=   11008kB time=00:00:02.56 bitrate=35133.3kbits/s speed=0.0565x    frame=  210 fps=4.6 q=31.0 size=   11264kB time=00:00:02.61 bitrate=35263.4kbits/s speed=0.0568x    frame=  213 fps=4.6 q=31.0 size=   11520kB time=00:00:02.66 bitrate=35388.7kbits/s speed=0.0571x    frame=  216 fps=4.6 q=31.0 size=   11776kB time=00:00:02.71 bitrate=35509.3kbits/s speed=0.0574x    frame=  219 fps=4.6 q=31.0 size=   11776kB time=00:00:02.76 bitrate=34867.6kbits/s speed=0.0577x    frame=  222 fps=4.6 q=31.0 size=   12032kB time=00:00:02.81 bitrate=34993.2kbits/s speed=0.058x    frame=  225 fps=4.6 q=31.0 size=   12288kB time=00:00:02.86 bitrate=35114.4kbits/s speed=0.0583x    frame=  228 fps=4.6 q=31.0 size=   12544kB time=00:00:02.91 bitrate=35231.5kbits/s speed=0.0585x    frame=  231 fps=4.6 q=31.0 size=   12544kB time=00:00:02.96 bitrate=34637.7kbits/s speed=0.0588x    frame=  234 fps=4.6 q=31.0 size=   13056kB time=00:00:03.01 bitrate=35453.9kbits/s speed=0.059x    frame=  237 fps=4.6 q=31.0 size=   13312kB time=00:00:03.06 bitrate=35559.7kbits/s speed=0.0591x    frame=  240 fps=4.6 q=31.0 size=   13568kB time=00:00:03.11 bitrate=35662.1kbits/s speed=0.0594x    frame=  243 fps=4.6 q=31.0 size=   13568kB time=00:00:03.16 bitrate=35099.1kbits/s speed=0.0596x    frame=  246 fps=4.6 q=31.0 size=   13824kB time=00:00:03.21 bitrate=35205.4kbits/s speed=0.0599x    frame=  249 fps=4.6 q=31.0 size=   14080kB time=00:00:03.26 bitrate=35308.6kbits/s speed=0.0601x    frame=  252 fps=4.6 q=31.0 size=   14336kB time=00:00:03.31 bitrate=35408.6kbits/s speed=0.0603x    frame=  255 fps=4.6 q=31.0 size=   14336kB time=00:00:03.36 bitrate=34882.7kbits/s speed=0.0605x    frame=  258 fps=4.6 q=31.0 size=   14592kB time=00:00:03.41 bitrate=34986.0kbits/s speed=0.0607x    frame=  260 fps=4.6 q=31.0 size=   14848kB time=00:00:03.45 bitrate=35255.9kbits/s speed=0.0607x    frame=  263 fps=4.6 q=31.0 size=   15104kB time=00:00:03.50 bitrate=35351.4kbits/s speed=0.0609x    frame=  266 fps=4.6 q=31.0 size=   15360kB time=00:00:03.55 bitrate=35444.3kbits/s speed=0.0612x    frame=  269 fps=4.6 q=31.0 size=   15616kB time=00:00:03.60 bitrate=35534.5kbits/s speed=0.0613x    frame=  272 fps=4.6 q=31.0 size=   15872kB time=00:00:03.65 bitrate=35622.3kbits/s speed=0.0615x    frame=  275 fps=4.6 q=31.0 size=   15872kB time=00:00:03.70 bitrate=35140.9kbits/s speed=0.0617x    frame=  278 fps=4.6 q=31.0 size=   16128kB time=00:00:03.75 bitrate=35231.6kbits/s speed=0.0619x    frame=  281 fps=4.6 q=31.0 size=   16384kB time=00:00:03.80 bitrate=35319.9kbits/s speed=0.062x    frame=  284 fps=4.6 q=31.0 size=   16640kB time=00:00:03.85 bitrate=35405.9kbits/s speed=0.0622x    frame=  287 fps=4.6 q=31.0 size=   16896kB time=00:00:03.90 bitrate=35489.7kbits/s speed=0.0623x    frame=  290 fps=4.6 q=31.0 size=   17152kB time=00:00:03.95 bitrate=35571.4kbits/s speed=0.0625x    frame=  293 fps=4.6 q=31.0 size=   17408kB time=00:00:04.00 bitrate=35651.1kbits/s speed=0.0627x    frame=  296 fps=4.5 q=29.0 size=   17664kB time=00:00:04.05 bitrate=35728.8kbits/s speed=0.0619x    frame=  298 fps=4.5 q=31.0 size=   17664kB time=00:00:04.08 bitrate=35437.1kbits/s speed=0.0619x    frame=  300 fps=4.5 q=31.0 size=   17664kB time=00:00:04.11 bitrate=35150.2kbits/s speed=0.0618x    frame=  300 fps=4.1 q=-1.0 Lsize=   21998kB time=00:00:04.95 bitrate=36404.9kbits/s speed=0.0669x    
video:21993kB audio:0kB subtitle:0kB other streams:0kB global headers:0kB muxing overhead: 0.020780%
[libx264 @ 0x55e147dc5240] frame I:2     Avg QP:24.68  size:795160
[libx264 @ 0x55e147dc5240] frame P:76    Avg QP:26.68  size:189801
[libx264 @ 0x55e147dc5240] frame B:222   Avg QP:31.81  size: 29303
[libx264 @ 0x55e147dc5240] consecutive B-frames:  1.3%  0.0%  0.0% 98.7%
[libx264 @ 0x55e147dc5240] mb I  I16..4:  9.2% 73.0% 17.8%
[libx264 @ 0x55e147dc5240] mb P  I16..4:  0.3%  1.8%  0.4%  P16..4: 35.3% 18.8% 11.8%  0.0%  0.0%    skip:31.7%
[libx264 @ 0x55e147dc5240] mb B  I16..4:  0.0%  0.0%  0.0%  B16..8: 31.5%  2.0%  0.8%  direct: 1.9%  skip:63.9%  L0:37.4% L1:55.2% BI: 7.4%
[libx264 @ 0x55e147dc5240] 8x8 transform intra:73.5% inter:74.1%
[libx264 @ 0x55e147dc5240] coded y,uvDC,uvAC intra: 83.0% 83.1% 55.6% inter: 11.4% 8.7% 0.7%
[libx264 @ 0x55e147dc5240] i16 v,h,dc,p: 63% 20% 13%  5%
[libx264 @ 0x55e147dc5240] i8 v,h,dc,ddl,ddr,vr,hd,vl,hu: 11% 11% 12% 12%  9%  9%  9% 13% 15%
[libx264 @ 0x55e147dc5240] i4 v,h,dc,ddl,ddr,vr,hd,vl,hu: 15% 13% 11% 11% 11% 10%  9% 11% 10%
[libx264 @ 0x55e147dc5240] i8c dc,h,v,p: 62% 16% 14%  8%
[libx264 @ 0x55e147dc5240] Weighted P-Frames: Y:0.0% UV:0.0%
[libx264 @ 0x55e147dc5240] ref P L0: 64.5% 21.7%  8.9%  4.8%
[libx264 @ 0x55e147dc5240] ref B L0: 96.0%  2.8%  1.1%
[libx264 @ 0x55e147dc5240] ref B L1: 99.1%  0.9%
[libx264 @ 0x55e147dc5240] kb/s:36032.68
	Command being timed: "/usr/bin/ffmpeg -i ../.././Samples/Netflix_Boat_4096x2160_60fps_10bit_420.y4m -c:v libx264 -f mov /home/aleksandr/Pract/Samples/Netflix_Boat_4096x2160_60fps_10bit_420.y4m_tc/output1.mov"
	User time (seconds): 190.55
	System time (seconds): 5.51
	Percent of CPU this job got: 263%
	Elapsed (wall clock) time (h:mm:ss or m:ss): 1:14.38
	Average shared text size (kbytes): 0
	Average unshared data size (kbytes): 0
	Average stack size (kbytes): 0
	Average total size (kbytes): 0
	Maximum resident set size (kbytes): 1951804
	Average resident set size (kbytes): 0
	Major (requiring I/O) page faults: 6
	Minor (reclaiming a frame) page faults: 330221
	Voluntary context switches: 23929
	Involuntary context switches: 9621
	Swaps: 0
	File system inputs: 15553024
	File system outputs: 44096
	Socket messages sent: 0
	Socket messages received: 0
	Signals delivered: 0
	Page size (bytes): 4096
	Exit status: 0
